<?xml version="1.0" encoding="iso-8859-1"?>
<!-- Generator: Adobe Illustrator 19.0.0, SVG Export Plug-In . SVG Version: 6.00 Build 0)  -->
<svg version="1.1" id="Capa_1" xmlns="http://www.w3.org/2000/svg" xmlns:xlink="http://www.w3.org/1999/xlink" x="0px" y="0px"
	 viewBox="0 0 512 512" style="enable-background:new 0 0 512 512;" xml:space="preserve">
<path style="fill:#D7D9CC;" d="M185.473,396.598c-51.644,0-93.506,41.862-93.506,93.496V512h52.308l7.948-6.422l7.505,6.422h40.468
	l83.858-115.402H185.473z"/>
<path style="fill:#F3F5E6;" d="M326.525,396.598h-42.471l-42.685,34.943l-41.173,33.452V512h152.075l7.726-5.907l7.726,5.907h52.308
	v-21.906C420.031,438.461,378.168,396.598,326.525,396.598z"/>
<path style="fill:#BDBFB4;" d="M144.274,512v-46.164c0-4.267,3.459-7.726,7.726-7.726s7.726,3.459,7.726,7.726V512H144.274z"/>
<g>
	<path style="fill:#D7D9CC;" d="M359.996,458.109c-4.267,0-7.726,3.459-7.726,7.726V512h15.453v-46.165
		C367.723,461.568,364.263,458.109,359.996,458.109z"/>
	<circle style="fill:#D7D9CC;" cx="236.044" cy="478.519" r="9.469"/>
	<circle style="fill:#D7D9CC;" cx="315.162" cy="478.519" r="9.469"/>
</g>
<polygon style="fill:#A8503C;" points="424.046,228.746 255.998,213.338 87.951,228.746 87.951,299.855 424.046,299.855 "/>
<circle style="fill:#E3B098;" cx="406.838" cy="300.287" r="35.346"/>
<ellipse style="fill:#FBC4AC;" cx="255.998" cy="289.12" rx="153.878" ry="143.061"/>
<path style="fill:#E3B098;" d="M133.022,289.123c0-74.161,60.699-135.139,138.43-142.344c-5.083-0.472-10.237-0.715-15.453-0.715
	c-76.128,0-139.335,51.397-151.687,118.9c-19.126,0.451-34.495,16.086-34.495,35.321c0,19.519,15.824,35.342,35.342,35.342
	c1.933,0,3.618-0.161,5.102-0.459c20.618,56.42,78.076,97.016,145.737,97.016c5.216,0,10.37-0.244,15.453-0.715
	C193.721,424.263,133.022,363.285,133.022,289.123z"/>
<path style="fill:#F3F5E6;" d="M376.25,0c-26.772,0-49.8,15.967-60.126,38.889C305.798,15.967,282.771,0,255.998,0
	s-49.8,15.967-60.125,38.889C185.547,15.967,162.519,0,135.747,0c-36.413,0-65.93,29.518-65.93,65.93
	c0,17.6,6.896,33.588,18.133,45.411l0.001,0.001v86.59l168.046,15.406l168.047-15.406v-86.59l0.001-0.001
	c11.237-11.823,18.133-27.812,18.133-45.411C442.18,29.518,412.662,0,376.25,0z"/>
<path style="fill:#D7D9CC;" d="M118.857,197.932v-86.59h-0.001c-11.237-11.823-18.133-27.813-18.133-45.411
	c0-31.093,21.53-57.141,50.49-64.094C146.252,0.642,141.076,0,135.747,0c-36.413,0-65.93,29.518-65.93,65.93
	c0,17.599,6.896,33.588,18.133,45.411h0.001v86.591l168.046,15.406l15.453-1.417L118.857,197.932z"/>
<path style="fill:#A8503C;" d="M255.998,345.368c17.398,21.748,43.033,12.735,56.553,5.593c3.279-1.732,3.513-6.286,0.474-8.412
	c-7.75-5.423-12.262-17.297-18.664-23.264c-9.945-9.27-27.079-14.901-38.363-4.67c-11.284-10.231-28.418-4.6-38.363,4.67
	c-6.402,5.966-10.914,17.841-18.664,23.264c-3.038,2.126-2.805,6.68,0.474,8.412C212.966,358.103,238.601,367.115,255.998,345.368z"
	/>
<path style="fill:#3B484A;" d="M340.817,307.147c-4.267,0-7.726-3.459-7.726-7.726v-16.492c0-4.267,3.459-7.726,7.726-7.726
	s7.726,3.459,7.726,7.726v16.492C348.544,303.688,345.084,307.147,340.817,307.147z"/>
<path style="fill:#F98084;" d="M352.048,331.389h-22.462c-4.267,0-7.726-3.459-7.726-7.726c0-4.267,3.459-7.726,7.726-7.726h22.462
	c4.267,0,7.726,3.459,7.726,7.726C359.775,327.929,356.315,331.389,352.048,331.389z"/>
<path style="fill:#3B484A;" d="M171.18,307.147c-4.267,0-7.726-3.459-7.726-7.726v-16.492c0-4.267,3.459-7.726,7.726-7.726
	c4.267,0,7.726,3.459,7.726,7.726v16.492C178.906,303.688,175.447,307.147,171.18,307.147z"/>
<path style="fill:#F98084;" d="M182.412,331.389h-22.463c-4.267,0-7.726-3.459-7.726-7.726c0-4.267,3.459-7.726,7.726-7.726h22.463
	c4.267,0,7.726,3.459,7.726,7.726C190.138,327.929,186.679,331.389,182.412,331.389z"/>
<g>
	<path style="fill:#D7D9CC;" d="M255.998,175.266c-4.267,0-7.726-3.459-7.726-7.726V81.298c0-4.267,3.459-7.726,7.726-7.726
		c4.267,0,7.726,3.459,7.726,7.726v86.242C263.725,171.806,260.265,175.266,255.998,175.266z"/>
	<path style="fill:#D7D9CC;" d="M178.55,175.266c-4.267,0-7.726-3.459-7.726-7.726V81.298c0-4.267,3.459-7.726,7.726-7.726
		c4.267,0,7.726,3.459,7.726,7.726v86.242C186.277,171.806,182.817,175.266,178.55,175.266z"/>
	<path style="fill:#D7D9CC;" d="M333.447,175.266c-4.267,0-7.726-3.459-7.726-7.726V81.298c0-4.267,3.459-7.726,7.726-7.726
		c4.267,0,7.726,3.459,7.726,7.726v86.242C341.174,171.806,337.714,175.266,333.447,175.266z"/>
	<rect x="87.955" y="197.929" style="fill:#D7D9CC;" width="336.097" height="30.814"/>
</g>
<rect x="87.955" y="197.929" style="fill:#BDBFB4;" width="30.905" height="30.813"/>
<g>
</g>
<g>
</g>
<g>
</g>
<g>
</g>
<g>
</g>
<g>
</g>
<g>
</g>
<g>
</g>
<g>
</g>
<g>
</g>
<g>
</g>
<g>
</g>
<g>
</g>
<g>
</g>
<g>
</g>
</svg>
