<svg id="Capa_1" enable-background="new 0 0 512 512" height="512" viewBox="0 0 512 512" width="512" xmlns="http://www.w3.org/2000/svg"><g id="XMLID_181_"><path id="XMLID_812_" d="m160.482 451.796c0 22.069-17.89 39.959-39.959 39.959s-39.959-17.89-39.959-39.959 39.959-51.268 39.959-51.268 39.959 29.2 39.959 51.268z" fill="#ffb64c"/><path id="XMLID_182_" d="m295.959 451.796c0 22.069-17.89 39.959-39.959 39.959s-39.959-17.89-39.959-39.959 39.959-51.268 39.959-51.268 39.959 29.2 39.959 51.268z" fill="#ffb64c"/><path id="XMLID_817_" d="m256 400.528v91.226c22.069 0 39.959-17.89 39.959-39.958s-39.959-51.268-39.959-51.268z" fill="#ff9468"/><path id="XMLID_186_" d="m431.435 451.796c0 22.069-17.89 39.959-39.959 39.959s-39.959-17.89-39.959-39.959 39.959-51.268 39.959-51.268 39.959 29.2 39.959 51.268z" fill="#ff9468"/><path id="XMLID_843_" d="m0 481.755h512v30h-512z" fill="#00465f"/><path id="XMLID_188_" d="m448 123.354-30 69.344h91v-69.344z" fill="#002c3c"/><path id="XMLID_831_" d="m3 123.354v69.344h91l-30-69.344z" fill="#00465f"/><path id="XMLID_896_" d="m64 123.354v193.836c0 31.952 25.994 57.946 57.945 57.946h268.109c31.951 0 57.945-25.994 57.945-57.946v-193.836z" fill="#a7d2d7"/><path id="XMLID_990_" d="m177.291 15.245v-15h-30v15c0 10.674 3.479 16.785 5.781 20.828 1.496 2.628 1.852 3.252 1.852 5.985s-.355 3.356-1.852 5.985c-2.302 4.043-5.781 10.154-5.781 20.828v15h30v-15c0-2.732.355-3.356 1.852-5.985 2.302-4.043 5.781-10.154 5.781-20.828s-3.479-16.785-5.781-20.828c-1.497-2.628-1.852-3.252-1.852-5.985z" fill="#fef2f3"/><path id="XMLID_996_" d="m267.184 15.245v-15h-30v15c0 10.674 3.479 16.785 5.781 20.828 1.496 2.628 1.852 3.252 1.852 5.985s-.355 3.356-1.852 5.985c-2.302 4.043-5.781 10.154-5.781 20.828v15h30v-15c0-2.732.355-3.356 1.852-5.985 2.302-4.043 5.781-10.154 5.781-20.828s-3.479-16.785-5.781-20.828c-1.497-2.628-1.852-3.252-1.852-5.985z" fill="#fef2f3"/><path id="XMLID_997_" d="m358.928 21.23c-1.496-2.628-1.852-3.252-1.852-5.985v-15h-30v15c0 10.674 3.479 16.785 5.781 20.828 1.496 2.628 1.852 3.252 1.852 5.985s-.355 3.356-1.852 5.985c-2.302 4.043-5.781 10.154-5.781 20.828v15h30v-15c0-2.732.355-3.356 1.852-5.985 2.302-4.043 5.781-10.154 5.781-20.828s-3.479-16.785-5.781-20.828z" fill="#e4ebef"/><path id="XMLID_1035_" d="m269.035 21.23c-1.496-2.628-1.852-3.252-1.852-5.985v-15h-11.183v83.625h11.184v-15c0-2.732.355-3.356 1.852-5.985 2.302-4.043 5.781-10.154 5.781-20.828s-3.48-16.784-5.782-20.827z" fill="#e4ebef"/><path id="XMLID_1010_" d="m256 123.354v251.782h134.055c31.951 0 57.945-25.994 57.945-57.946v-193.836z" fill="#7ba0b0"/><path id="XMLID_999_" d="m256 481.755h256v30h-256z" fill="#002c3c"/></g></svg>