<svg id="Layer_1" enable-background="new 0 0 256 256" height="512" viewBox="0 0 256 256" width="512" xmlns="http://www.w3.org/2000/svg"><g><g><path d="m97.908 4h60.183v15.872h-60.183z" fill="#526faa"/></g><g><path d="m242.502 97.72h-47.891c-3.446 0-6.24-2.794-6.24-6.24 0-3.446 2.794-6.24 6.24-6.24h47.891c3.446 0 6.24 2.794 6.24 6.24 0 3.446-2.794 6.24-6.24 6.24z" fill="#fcc24c"/></g><g><path d="m140.542 132.785h36.344v10.861h-36.344z" fill="#f4efed"/></g><g><path d="m68.696 53.651h118.607v12.175h-118.607z" fill="#f4efed"/></g><g><path d="m68.696 53.651h118.607l-29.211-33.779h-60.184z" fill="#526faa"/></g><g><path d="m7.258 143.645h241.484v108.354h-241.484z" fill="#f4efed"/></g><g><path d="m7.258 143.645h60.371v108.354h-60.371z" fill="#fcc24c"/></g><g><path d="m188.371 143.645h60.371v108.354h-60.371z" fill="#fcc24c"/></g><g><path d="m67.629 188.085h120.742v63.915h-120.742z" fill="#526faa"/></g><g><path d="m208.819 62.142v-9.374h-7.062v9.374c-2.108 1.222-3.531 3.497-3.531 6.109v16.989h14.123v-16.989c0-2.612-1.422-4.888-3.53-6.109z" fill="#526faa"/></g><g><path d="m235.356 62.142v-9.374h-7.062v9.374c-2.109 1.222-3.531 3.497-3.531 6.109v16.989h14.123v-16.989c.001-2.612-1.422-4.888-3.53-6.109z" fill="#526faa"/></g><g><path d="m242.502 85.24h-8.764c3.446 0 6.24 2.794 6.24 6.24s-2.794 6.24-6.24 6.24h8.764c3.446 0 6.24-2.794 6.24-6.24s-2.794-6.24-6.24-6.24z" fill="#dea42e"/></g><g><path d="m58.047 133.43h-41.207l9.737 10.215h21.733z" fill="#f4efed"/></g><g><path d="m58.047 123.216h-41.207l9.737 10.214h21.733z" fill="#f4efed"/></g><g><path d="m58.047 113.001h-41.207l9.737 10.215h21.733z" fill="#f4efed"/></g><g><path d="m158.092 19.872h-9.738l29.212 33.779h9.737z" fill="#34518c"/></g><g><path d="m97.908 19.872h9.737l-29.211 33.779h-9.738z" fill="#708dc8"/></g><g><path d="m177.566 53.651h9.737v12.175h-9.737z" fill="#d6d1cf"/></g><g><path d="m68.696 53.651h9.737v12.175h-9.737z" fill="#fff"/></g><g><path d="m148.092 4h10v15.872h-10z" fill="#34518c"/></g><g><path d="m97.908 4h10v15.872h-10z" fill="#708dc8"/></g><g><path d="m79.114 132.785h36.344v10.861h-36.344z" fill="#f4efed"/></g><g><path d="m169.096 132.785h7.79v10.861h-7.79z" fill="#d6d1cf"/></g><g><path d="m79.114 132.785h7.79v10.861h-7.79z" fill="#fff"/></g><g><path d="m239.005 143.645h9.737v108.354h-9.737z" fill="#dea42e"/></g><g><path d="m7.258 143.645h9.737v108.354h-9.737z" fill="#fce06a"/></g><g><path d="m104.057 165.865c0 3.739-3.031 6.771-6.771 6.771-3.739 0-6.771-3.031-6.771-6.771 0-3.739 3.031-6.771 6.771-6.771 3.74.001 6.771 3.032 6.771 6.771z" fill="#526faa"/></g><g><path d="m165.484 165.865c0 3.739-3.031 6.771-6.771 6.771-3.739 0-6.771-3.031-6.771-6.771 0-3.739 3.031-6.771 6.771-6.771 3.74.001 6.771 3.032 6.771 6.771z" fill="#526faa"/></g><g><path d="m137.667 207.779h-19.334c-2.749 0-4.978-2.229-4.978-4.978 0-2.749 2.229-4.978 4.978-4.978h19.334c2.749 0 4.978 2.229 4.978 4.978 0 2.749-2.229 4.978-4.978 4.978z" fill="#f4efed"/></g><g><path d="m248.742 254h-241.484c-1.104 0-2-.895-2-2v-108.355c0-1.104.896-2 2-2h241.484c1.104 0 2 .896 2 2v108.355c0 1.105-.895 2-2 2zm-239.484-4h237.484v-104.355h-237.484z" fill="#690589"/></g><g><path d="m188.371 254h-120.742c-1.104 0-2-.895-2-2v-108.355c0-1.104.896-2 2-2h120.742c1.105 0 2 .896 2 2v108.355c0 1.105-.895 2-2 2zm-118.742-4h116.742v-104.355h-116.742z" fill="#690589"/></g><g><path d="m187.304 55.65h-118.608c-.782 0-1.493-.456-1.819-1.168-.325-.712-.205-1.548.307-2.141l29.212-33.778c.38-.438.932-.691 1.513-.691h60.184c.581 0 1.133.253 1.513.691l29.212 33.778c.512.593.632 1.429.307 2.141-.328.712-1.039 1.168-1.821 1.168zm-114.234-4h109.86l-25.752-29.778h-58.356z" fill="#690589"/></g><g><path d="m187.304 67.825h-118.608c-1.104 0-2-.896-2-2v-12.175c0-1.104.896-2 2-2h118.607c1.105 0 2 .896 2 2v12.175c.001 1.105-.895 2-1.999 2zm-116.608-4h114.607v-8.175h-114.607z" fill="#690589"/></g><g><path d="m158.092 21.872h-60.184c-1.104 0-2-.896-2-2v-15.872c0-1.105.896-2 2-2h60.184c1.105 0 2 .895 2 2v15.872c0 1.105-.896 2-2 2zm-58.184-4h56.184v-11.872h-56.184z" fill="#690589"/></g><g><path d="m188.371 190.086h-120.742c-1.104 0-2-.896-2-2 0-1.105.896-2 2-2h120.742c1.105 0 2 .895 2 2 0 1.104-.895 2-2 2z" fill="#690589"/></g><g><path d="m115.458 145.645h-36.344c-1.104 0-2-.895-2-2v-10.86c0-1.105.896-2 2-2h36.344c1.104 0 2 .895 2 2v10.86c0 1.105-.895 2-2 2zm-34.344-4h32.344v-6.86h-32.344z" fill="#690589"/></g><g><path d="m176.886 145.645h-36.344c-1.105 0-2-.895-2-2v-10.86c0-1.105.895-2 2-2h36.344c1.105 0 2 .895 2 2v10.86c0 1.105-.896 2-2 2zm-34.344-4h32.344v-6.86h-32.344z" fill="#690589"/></g><g><path d="m97.286 174.636c-4.836 0-8.771-3.934-8.771-8.77s3.935-8.771 8.771-8.771 8.771 3.935 8.771 8.771c0 4.835-3.935 8.77-8.771 8.77zm0-13.541c-2.631 0-4.771 2.14-4.771 4.771s2.14 4.77 4.771 4.77 4.771-2.14 4.771-4.77c0-2.632-2.14-4.771-4.771-4.771z" fill="#690589"/></g><g><path d="m158.714 174.636c-4.836 0-8.77-3.934-8.77-8.77s3.934-8.771 8.77-8.771 8.771 3.935 8.771 8.771c-.001 4.835-3.935 8.77-8.771 8.77zm0-13.541c-2.631 0-4.77 2.14-4.77 4.771s2.14 4.77 4.77 4.77c2.631 0 4.771-2.14 4.771-4.77-.001-2.632-2.14-4.771-4.771-4.771z" fill="#690589"/></g><g><path d="m137.667 209.778h-19.334c-3.848 0-6.978-3.13-6.978-6.978s3.13-6.979 6.978-6.979h19.334c3.848 0 6.977 3.131 6.977 6.979.001 3.848-3.129 6.978-6.977 6.978zm-19.334-9.956c-1.642 0-2.978 1.336-2.978 2.979 0 1.642 1.336 2.978 2.978 2.978h19.334c1.642 0 2.977-1.336 2.977-2.978 0-1.643-1.336-2.979-2.977-2.979z" fill="#690589"/></g><g><path d="m248.742 199.822h-60.371c-1.104 0-2-.895-2-2 0-1.104.896-2 2-2h60.371c1.104 0 2 .896 2 2 0 1.105-.895 2-2 2z" fill="#690589"/></g><g><path d="m67.629 199.822h-60.371c-1.104 0-2-.895-2-2 0-1.104.896-2 2-2h60.371c1.104 0 2 .896 2 2 0 1.105-.896 2-2 2z" fill="#690589"/></g><g><path d="m218.557 145.645c-1.104 0-2-.895-2-2v-20.788c0-3.363 2.735-6.099 6.099-6.099s6.099 2.735 6.099 6.099v4.38c0 1.104-.896 2-2 2-1.105 0-2-.896-2-2v-4.38c0-1.157-.941-2.099-2.099-2.099-1.157 0-2.099.941-2.099 2.099v20.788c0 1.105-.896 2-2 2z" fill="#690589"/></g><g><path d="m48.31 145.645h-21.733c-.547 0-1.07-.224-1.447-.62l-9.737-10.215c-.553-.579-.706-1.432-.392-2.167.315-.736 1.039-1.213 1.839-1.213h41.207c.8 0 1.523.477 1.839 1.213.314.735.161 1.588-.392 2.167l-9.737 10.215c-.377.397-.901.62-1.447.62zm-20.876-4h20.019l5.924-6.215h-31.867z" fill="#690589"/></g><g><path d="m48.31 135.431h-21.733c-.547 0-1.07-.224-1.447-.62l-9.737-10.215c-.553-.579-.706-1.432-.392-2.167.315-.736 1.039-1.213 1.839-1.213h41.207c.8 0 1.523.477 1.839 1.213.314.735.161 1.588-.392 2.167l-9.737 10.215c-.377.396-.901.62-1.447.62zm-20.876-4h20.019l5.924-6.215h-31.867z" fill="#690589"/></g><g><path d="m48.31 125.216h-21.733c-.547 0-1.07-.224-1.447-.62l-9.737-10.215c-.553-.579-.706-1.432-.392-2.167.315-.736 1.039-1.213 1.839-1.213h41.207c.8 0 1.523.477 1.839 1.213.314.735.161 1.588-.392 2.167l-9.737 10.215c-.377.396-.901.62-1.447.62zm-20.876-4h20.019l5.924-6.215h-31.867z" fill="#690589"/></g><g><path d="m242.502 99.72h-47.891c-4.544 0-8.24-3.696-8.24-8.24 0-4.543 3.696-8.239 8.24-8.239h47.891c4.544 0 8.24 3.696 8.24 8.239s-3.696 8.24-8.24 8.24zm-47.891-12.48c-2.338 0-4.24 1.901-4.24 4.239s1.902 4.24 4.24 4.24h47.891c2.338 0 4.24-1.902 4.24-4.24s-1.902-4.239-4.24-4.239z" fill="#690589"/></g><g><path d="m212.35 87.239h-14.123c-1.104 0-2-.896-2-2v-16.988c0-2.815 1.328-5.467 3.53-7.17v-8.313c0-1.104.895-2 2-2h7.062c1.104 0 2 .896 2 2v8.313c2.203 1.703 3.531 4.354 3.531 7.17v16.988c0 1.105-.896 2-2 2zm-12.123-4h10.123v-14.988c0-1.796-.971-3.474-2.533-4.379-.618-.358-.998-1.017-.998-1.73v-7.373h-3.062v7.373c0 .714-.38 1.373-.997 1.73-1.563.905-2.533 2.583-2.533 4.379z" fill="#690589"/></g><g><path d="m238.887 87.239h-14.123c-1.105 0-2-.896-2-2v-16.988c0-2.815 1.328-5.467 3.53-7.17v-8.313c0-1.104.896-2 2-2h7.062c1.105 0 2 .896 2 2v8.313c2.203 1.703 3.531 4.355 3.531 7.17v16.988c0 1.105-.896 2-2 2zm-12.123-4h10.123v-14.988c0-1.795-.971-3.474-2.534-4.379-.617-.358-.997-1.017-.997-1.73v-7.373h-3.062v7.373c0 .714-.38 1.373-.997 1.73-1.563.905-2.533 2.583-2.533 4.379z" fill="#690589"/></g><g><path d="m16.995 175.941c-1.104 0-2-.896-2-2v-12c0-1.105.896-2 2-2s2 .895 2 2v12c0 1.105-.895 2-2 2z" fill="#690589"/></g></g></svg>