<svg id="Layer_1" enable-background="new 0 0 256 256" height="512" viewBox="0 0 256 256" width="512" xmlns="http://www.w3.org/2000/svg"><g><g><path d="m65.336 105.878h29.356c4.327 0 8.163-2.783 9.506-6.896l6.515-19.955c.792-2.427.627-5.064-.463-7.372l-18.303-38.773h-23.866l-18.303 38.773c-1.09 2.308-1.255 4.946-.463 7.373l6.515 19.955c1.343 4.112 5.179 6.895 9.506 6.895z" fill="#f4efed"/></g><g><path d="m110.25 71.655-18.303-38.773h-8l18.303 38.772c1.09 2.308 1.255 4.946.463 7.373l-6.515 19.955c-1.343 4.113-5.179 6.896-9.506 6.896h8c4.327 0 8.163-2.783 9.506-6.896l6.515-19.955c.792-2.426.627-5.064-.463-7.372z" fill="#d6d1cf"/></g><g><path d="m49.778 71.655 18.303-38.772h8l-18.303 38.772c-1.09 2.308-1.255 4.946-.463 7.373l6.515 19.955c1.343 4.113 5.179 6.896 9.506 6.896h-8c-4.327 0-8.163-2.783-9.506-6.896l-6.515-19.955c-.792-2.427-.627-5.065.463-7.373z" fill="#fff"/></g><g><path d="m98.896 47.604h-37.764l-11.354 24.051c-1.09 2.308-1.255 4.946-.463 7.373l6.515 19.955c1.343 4.113 5.179 6.896 9.506 6.896h29.356c4.327 0 8.163-2.783 9.506-6.896l6.515-19.955c.792-2.427.626-5.064-.463-7.373z" fill="#526faa"/></g><g><path d="m96.198 98.982c-1.343 4.113-5.179 6.896-9.506 6.896h8c4.327 0 8.163-2.783 9.506-6.896l6.515-19.955c.792-2.427.626-5.064-.463-7.373l-11.354-24.05h-8l11.354 24.051c1.09 2.308 1.255 4.946.463 7.373z" fill="#34518c"/></g><g><path d="m63.83 98.982c1.343 4.113 5.179 6.896 9.506 6.896h-8c-4.327 0-8.163-2.783-9.506-6.896l-6.515-19.955c-.792-2.427-.627-5.064.463-7.373l11.354-24.051h8l-11.354 24.052c-1.09 2.308-1.255 4.946-.463 7.373z" fill="#708dc8"/></g><g><path d="m194.738 166.042h-37.505c-2.761 0-5 2.239-5 5v41.816c0 2.762 2.239 5 5 5h37.505c2.761 0 5-2.238 5-5v-41.816c0-2.761-2.239-5-5-5z" fill="#7bac51"/></g><g><path d="m194.738 148.226h-37.505c-2.761 0-5 2.239-5 5v7.816c0 2.761 2.239 5 5 5h37.505c2.761 0 5-2.239 5-5v-7.816c0-2.762-2.239-5-5-5z" fill="#f4efed"/></g><g><path d="m194.738 166.042h-8c2.761 0 5 2.239 5 5v41.816c0 2.762-2.239 5-5 5h8c2.761 0 5-2.238 5-5v-41.816c0-2.761-2.239-5-5-5z" fill="#5d8e33"/></g><g><path d="m157.233 217.858h8c-2.761 0-5-2.239-5-5v-41.816c0-2.762 2.239-5 5-5h-8c-2.761 0-5 2.238-5 5v41.816c0 2.762 2.239 5 5 5z" fill="#99ca6f"/></g><g><path d="m194.738 148.226h-7c2.761 0 5 2.239 5 5v7.816c0 2.761-2.239 5-5 5h7c2.761 0 5-2.239 5-5v-7.816c0-2.762-2.239-5-5-5z" fill="#d6d1cf"/></g><g><path d="m157.233 166.042h7c-2.761 0-5-2.239-5-5v-7.816c0-2.761 2.239-5 5-5h-7c-2.761 0-5 2.239-5 5v7.816c0 2.761 2.239 5 5 5z" fill="#fff"/></g><g><g><path d="m252 123.378h-248v-59.618h17.499v42.118h213.002v-42.118h17.499z" fill="#af5f40"/></g></g><g><g><path d="m252 235.357h-248v-59.617h17.499v42.118h213.002v-42.118h17.499z" fill="#af5f40"/></g></g><g><g><path d="m243 63.76h9v59.617h-9z" fill="#914122"/></g></g><g><g><path d="m4 63.76h9v59.617h-9z" fill="#cd7d5e"/></g></g><g><g><path d="m243 175.74h9v59.618h-9z" fill="#914122"/></g></g><g><g><path d="m4 175.74h9v59.618h-9z" fill="#cd7d5e"/></g></g><g><g><path d="m252 125.377h-248c-1.105 0-2-.896-2-2v-59.617c0-1.104.895-2 2-2h17.499c1.104 0 2 .896 2 2v40.119h209.002v-40.119c0-1.104.895-2 2-2h17.499c1.104 0 2 .896 2 2v59.618c0 1.104-.896 1.999-2 1.999zm-246-4h244v-55.617h-13.499v40.119c0 1.104-.896 2-2 2h-213.002c-1.105 0-2-.896-2-2v-40.119h-13.499z" fill="#690589"/></g></g><g><g><path d="m252 237.357h-248c-1.105 0-2-.896-2-2v-59.617c0-1.104.895-2 2-2h17.499c1.104 0 2 .896 2 2v40.118h209.002v-40.118c0-1.104.895-2 2-2h17.499c1.104 0 2 .896 2 2v59.618c0 1.104-.896 1.999-2 1.999zm-246-4h244v-55.617h-13.499v40.118c0 1.105-.896 2-2 2h-213.002c-1.105 0-2-.895-2-2v-40.118h-13.499z" fill="#690589"/></g></g><g><path d="m98.734 20.643h-37.44c-3.38 0-6.12 2.74-6.12 6.12 0 3.38 2.74 6.12 6.12 6.12h37.44c3.38 0 6.12-2.74 6.12-6.12 0-3.38-2.74-6.12-6.12-6.12z" fill="#f4efed"/></g><g><path d="m62.174 26.763c0-3.38 2.74-6.12 6.12-6.12h-7c-3.38 0-6.12 2.74-6.12 6.12 0 3.38 2.74 6.12 6.12 6.12h7c-3.38-.001-6.12-2.741-6.12-6.12z" fill="#fff"/></g><g><path d="m97.854 26.763c0-3.38-2.74-6.12-6.12-6.12h7c3.38 0 6.12 2.74 6.12 6.12 0 3.38-2.74 6.12-6.12 6.12h-7c3.38-.001 6.12-2.741 6.12-6.12z" fill="#d6d1cf"/></g><g><path d="m98.734 34.882h-37.44c-4.477 0-8.12-3.643-8.12-8.12s3.643-8.12 8.12-8.12h37.44c4.477 0 8.12 3.643 8.12 8.12 0 4.478-3.643 8.12-8.12 8.12zm-37.44-12.239c-2.271 0-4.12 1.848-4.12 4.12s1.848 4.12 4.12 4.12h37.44c2.271 0 4.12-1.848 4.12-4.12s-1.848-4.12-4.12-4.12z" fill="#690589"/></g><g><path d="m192.748 41.718v-8.835h-33.524v8.835c0 1.427-.61 2.787-1.676 3.736l-7.887 7.017c-1.066.949-1.677 2.308-1.677 3.736v39.673c0 5.523 4.477 10 10 10h36.005c5.523 0 10-4.477 10-10v-39.674c0-1.427-.61-2.787-1.677-3.736l-7.887-7.017c-1.067-.948-1.677-2.308-1.677-3.735z" fill="#f4efed"/></g><g><path d="m154.983 95.878v-39.672c0-1.427.61-2.787 1.677-3.736l7.887-7.017c1.066-.949 1.676-2.308 1.676-3.736v-8.835h-7v8.835c0 1.427-.61 2.787-1.676 3.736l-7.887 7.017c-1.066.949-1.677 2.308-1.677 3.736v39.673c0 5.523 4.477 10 10 10h7c-5.522-.001-10-4.478-10-10.001z" fill="#fff"/></g><g><path d="m149.66 52.47c-1.066.949-1.677 2.308-1.677 3.736v39.673c0 5.523 4.477 10 10 10h36.005c5.523 0 10-4.477 10-10v-39.673c0-1.427-.61-2.787-1.677-3.736l-.699-.622h-51.254z" fill="#ff4397"/></g><g><path d="m154.983 95.878v-39.672c0-1.427.61-2.787 1.677-3.736l.699-.622h-7l-.699.622c-1.066.949-1.677 2.308-1.677 3.736v39.673c0 5.523 4.477 10 10 10h7c-5.522-.001-10-4.478-10-10.001z" fill="#ff61b5"/></g><g><path d="m194.706 20.643h-37.44c-3.38 0-6.12 2.74-6.12 6.12 0 3.38 2.74 6.12 6.12 6.12h37.44c3.38 0 6.12-2.74 6.12-6.12 0-3.38-2.74-6.12-6.12-6.12z" fill="#f4efed"/></g><g><path d="m158.146 26.763c0-3.38 2.74-6.12 6.12-6.12h-7c-3.38 0-6.12 2.74-6.12 6.12 0 3.38 2.74 6.12 6.12 6.12h7c-3.38-.001-6.12-2.741-6.12-6.12z" fill="#fff"/></g><g><path d="m196.988 95.878v-39.672c0-1.427-.61-2.787-1.677-3.736l-7.887-7.017c-1.066-.949-1.677-2.308-1.677-3.736v-8.835h7v8.835c0 1.427.61 2.787 1.677 3.736l7.887 7.017c1.067.949 1.677 2.308 1.677 3.736v39.673c0 5.523-4.477 10-10 10h-7c5.523-.001 10-4.478 10-10.001z" fill="#d6d1cf"/></g><g><path d="m196.988 95.878v-39.672c0-1.427-.61-2.787-1.677-3.736l-.699-.622h7l.699.622c1.067.949 1.677 2.308 1.677 3.736v39.673c0 5.523-4.477 10-10 10h-7c5.523-.001 10-4.478 10-10.001z" fill="#e12579"/></g><g><path d="m193.826 26.763c0-3.38-2.74-6.12-6.12-6.12h7c3.38 0 6.12 2.74 6.12 6.12 0 3.38-2.74 6.12-6.12 6.12h-7c3.38-.001 6.12-2.741 6.12-6.12z" fill="#d6d1cf"/></g><g><path d="m162.351 65.483h27.27v19.531h-27.27z" fill="#fcc24c"/></g><g><path d="m193.988 107.878h-36.005c-6.617 0-12-5.383-12-12v-39.672c0-1.997.855-3.903 2.348-5.23l7.887-7.017c.639-.569 1.006-1.386 1.006-2.242v-8.835c0-1.105.895-2 2-2h33.524c1.104 0 2 .896 2 2v8.835c0 .855.367 1.673 1.006 2.242l7.887 7.017c1.492 1.327 2.348 3.233 2.348 5.23v39.672c-.001 6.617-5.384 12-12.001 12zm-32.764-72.996v6.835c0 1.997-.855 3.903-2.348 5.23l-7.887 7.017c-.639.569-1.006 1.386-1.006 2.242v39.672c0 4.411 3.589 8 8 8h36.005c4.411 0 8-3.589 8-8v-39.672c0-.855-.367-1.673-1.006-2.242l-7.887-7.017c-1.492-1.327-2.348-3.233-2.348-5.23v-6.835z" fill="#690589"/></g><g><path d="m194.706 34.882h-37.441c-4.477 0-8.12-3.643-8.12-8.12s3.643-8.12 8.12-8.12h37.441c4.477 0 8.12 3.643 8.12 8.12 0 4.478-3.642 8.12-8.12 8.12zm-37.44-12.239c-2.271 0-4.12 1.848-4.12 4.12s1.849 4.12 4.12 4.12h37.441c2.271 0 4.12-1.848 4.12-4.12s-1.849-4.12-4.12-4.12z" fill="#690589"/></g><g><path d="m189.621 87.015h-27.27c-1.105 0-2-.896-2-2v-19.532c0-1.104.895-2 2-2h27.27c1.105 0 2 .896 2 2v19.531c0 1.105-.895 2.001-2 2.001zm-25.27-4h23.27v-15.532h-23.27z" fill="#690589"/></g><g><path d="m193.988 107.878h-36.005c-6.617 0-12-5.383-12-12v-39.672c0-1.997.855-3.903 2.348-5.23l.699-.622c.366-.326.839-.505 1.329-.505h51.253c.49 0 .963.18 1.329.505l.699.622c1.492 1.328 2.348 3.234 2.348 5.23v39.672c0 6.617-5.383 12-12 12zm-42.999-53.913c-.64.569-1.006 1.386-1.006 2.241v39.672c0 4.411 3.589 8 8 8h36.005c4.411 0 8-3.589 8-8v-39.672c0-.856-.367-1.673-1.006-2.242l-.131-.116h-49.731z" fill="#690589"/></g><g><path d="m96.776 153.698v-8.835h-33.524v8.835c0 1.427-.61 2.787-1.677 3.736l-7.887 7.017c-1.066.949-1.677 2.308-1.677 3.736v39.672c0 5.523 4.477 10 10 10h36.005c5.523 0 10-4.477 10-10v-39.672c0-1.428-.61-2.787-1.677-3.736l-7.887-7.017c-1.066-.95-1.676-2.309-1.676-3.736z" fill="#f4efed"/></g><g><path d="m59.012 207.858v-39.672c0-1.428.61-2.787 1.677-3.736l7.887-7.017c1.066-.949 1.677-2.308 1.677-3.736v-8.835h-7v8.835c0 1.427-.61 2.787-1.677 3.736l-7.887 7.017c-1.066.949-1.677 2.308-1.677 3.736v39.672c0 5.523 4.477 10 10 10h7c-5.523 0-10-4.477-10-10z" fill="#fff"/></g><g><path d="m53.688 164.45c-1.066.949-1.677 2.308-1.677 3.736v39.672c0 5.523 4.477 10 10 10h36.005c5.523 0 10-4.477 10-10v-39.672c0-1.428-.61-2.787-1.677-3.736l-.699-.622h-51.253z" fill="#f4efed"/></g><g><path d="m59.012 207.858v-39.672c0-1.428.61-2.787 1.677-3.736l.699-.622h-7l-.699.622c-1.066.949-1.677 2.308-1.677 3.736v39.672c0 5.523 4.477 10 10 10h7c-5.523 0-10-4.477-10-10z" fill="#fff"/></g><g><path d="m98.734 132.622h-37.44c-3.38 0-6.12 2.74-6.12 6.12 0 3.38 2.74 6.12 6.12 6.12h37.44c3.38 0 6.12-2.74 6.12-6.12 0-3.379-2.74-6.12-6.12-6.12z" fill="#f4efed"/></g><g><path d="m62.174 138.742c0-3.38 2.74-6.12 6.12-6.12h-7c-3.38 0-6.12 2.74-6.12 6.12 0 3.38 2.74 6.12 6.12 6.12h7c-3.38 0-6.12-2.74-6.12-6.12z" fill="#fff"/></g><g><path d="m101.016 207.858v-39.672c0-1.428-.61-2.787-1.677-3.736l-7.887-7.017c-1.066-.949-1.676-2.308-1.676-3.736v-8.835h7v8.835c0 1.427.61 2.787 1.676 3.736l7.887 7.017c1.066.949 1.677 2.308 1.677 3.736v39.672c0 5.523-4.477 10-10 10h-7c5.523 0 10-4.477 10-10z" fill="#d6d1cf"/></g><g><path d="m101.016 207.858v-39.672c0-1.428-.61-2.787-1.677-3.736l-.699-.622h7l.699.622c1.066.949 1.677 2.308 1.677 3.736v39.672c0 5.523-4.477 10-10 10h-7c5.523 0 10-4.477 10-10z" fill="#d6d1cf"/></g><g><path d="m97.854 138.742c0-3.38-2.74-6.12-6.12-6.12h7c3.38 0 6.12 2.74 6.12 6.12 0 3.38-2.74 6.12-6.12 6.12h-7c3.38 0 6.12-2.74 6.12-6.12z" fill="#d6d1cf"/></g><g><path d="m66.379 177.463h27.27v19.531h-27.27z" fill="#526faa"/></g><g><path d="m98.017 219.858h-36.005c-6.617 0-12-5.383-12-12v-39.672c0-1.996.855-3.902 2.347-5.229l7.887-7.017c.639-.569 1.006-1.386 1.006-2.241v-8.835c0-1.105.895-2 2-2h33.524c1.104 0 2 .895 2 2v8.835c0 .855.367 1.672 1.006 2.241l7.887 7.017c1.492 1.327 2.347 3.233 2.347 5.229v39.672c.001 6.617-5.383 12-11.999 12zm-32.765-72.996v6.835c0 1.997-.856 3.903-2.347 5.229l-7.887 7.017c-.64.569-1.006 1.386-1.006 2.241v39.672c0 4.411 3.589 8 8 8h36.005c4.411 0 8-3.589 8-8v-39.672c0-.855-.367-1.672-1.006-2.241l-7.887-7.017c-1.492-1.327-2.347-3.233-2.347-5.229v-6.835z" fill="#690589"/></g><g><path d="m98.734 146.862h-37.44c-4.477 0-8.12-3.643-8.12-8.12s3.643-8.12 8.12-8.12h37.44c4.477 0 8.12 3.643 8.12 8.12 0 4.478-3.643 8.12-8.12 8.12zm-37.44-12.239c-2.271 0-4.12 1.848-4.12 4.12s1.848 4.12 4.12 4.12h37.44c2.271 0 4.12-1.848 4.12-4.12 0-2.271-1.848-4.12-4.12-4.12z" fill="#690589"/></g><g><path d="m93.649 198.995h-27.27c-1.104 0-2-.895-2-2v-19.531c0-1.104.896-2 2-2h27.27c1.104 0 2 .896 2 2v19.531c0 1.104-.895 2-2 2zm-25.27-4h23.27v-15.531h-23.27z" fill="#690589"/></g><g><path d="m98.017 219.858h-36.005c-6.617 0-12-5.383-12-12v-39.672c0-1.996.855-3.902 2.347-5.229l.699-.622c.366-.326.84-.506 1.33-.506h51.254c.49 0 .964.18 1.33.506l.699.622c1.491 1.327 2.347 3.233 2.347 5.229v39.672c-.001 6.617-5.385 12-12.001 12zm-42.869-54.03-.13.116v.001c-.64.569-1.006 1.386-1.006 2.241v39.672c0 4.411 3.589 8 8 8h36.005c4.411 0 8-3.589 8-8v-39.672c0-.855-.367-1.672-1.006-2.241l-.13-.116h-49.733zm-1.46-1.378h.01z" fill="#690589"/></g><g><path d="m13 103.309c-1.105 0-2-.896-2-2v-12c0-1.104.895-2 2-2 1.104 0 2 .896 2 2v12c0 1.105-.896 2-2 2z" fill="#690589"/></g><g><path d="m194.738 219.858h-37.505c-3.859 0-7-3.14-7-7v-41.816c0-3.86 3.141-7 7-7h37.505c3.859 0 7 3.14 7 7v41.816c0 3.86-3.14 7-7 7zm-37.505-51.816c-1.654 0-3 1.346-3 3v41.816c0 1.654 1.346 3 3 3h37.505c1.654 0 3-1.346 3-3v-41.816c0-1.654-1.346-3-3-3z" fill="#690589"/></g><g><path d="m194.738 168.042h-37.505c-3.859 0-7-3.14-7-7v-7.816c0-3.86 3.141-7 7-7h37.505c3.859 0 7 3.14 7 7v7.816c0 3.86-3.14 7-7 7zm-37.505-17.816c-1.654 0-3 1.346-3 3v7.816c0 1.654 1.346 3 3 3h37.505c1.654 0 3-1.346 3-3v-7.816c0-1.654-1.346-3-3-3z" fill="#690589"/></g><g><path d="m175.986 201.234c-4.293 0-7.774-3.48-7.774-7.774v-5.234c0-4.293 3.48-7.773 7.774-7.773 4.293 0 7.774 3.48 7.774 7.773v5.234c-.001 4.293-3.481 7.774-7.774 7.774z" fill="#fcc24c"/></g><g><path d="m175.985 203.233c-5.389 0-9.773-4.384-9.773-9.773v-5.233c0-5.389 4.385-9.773 9.773-9.773 5.39 0 9.774 4.384 9.774 9.773v5.233c.001 5.389-4.384 9.773-9.774 9.773zm0-20.78c-3.184 0-5.773 2.59-5.773 5.773v5.233c0 3.184 2.59 5.773 5.773 5.773 3.184 0 5.774-2.59 5.774-5.773v-5.233c.001-3.183-2.59-5.773-5.774-5.773z" fill="#690589"/></g><g><path d="m94.692 107.878h-29.356c-5.207 0-9.791-3.326-11.407-8.276l-6.515-19.955c-.954-2.924-.757-6.066.556-8.847l11.353-24.05c.331-.7 1.035-1.146 1.809-1.146h37.764c.774 0 1.478.446 1.809 1.146l11.354 24.051c1.313 2.781 1.51 5.923.556 8.847l-6.515 19.955c-1.617 4.95-6.201 8.275-11.408 8.275zm-32.293-58.274-10.812 22.905c-.875 1.854-1.007 3.948-.371 5.898l6.515 19.955c1.077 3.3 4.133 5.517 7.604 5.517h29.356c3.471 0 6.527-2.217 7.604-5.517l6.515-19.955c.636-1.949.505-4.044-.371-5.898l-10.811-22.905z" fill="#690589"/></g><g><path d="m94.692 107.878h-29.356c-5.207 0-9.791-3.326-11.407-8.276l-6.515-19.955c-.954-2.924-.757-6.066.556-8.847l18.303-38.772c.331-.7 1.035-1.146 1.809-1.146h23.865c.774 0 1.478.446 1.809 1.146l18.303 38.772c1.313 2.781 1.51 5.923.556 8.847l-6.515 19.956c-1.617 4.95-6.201 8.275-11.408 8.275zm-25.343-72.996-17.762 37.627c-.875 1.854-1.007 3.949-.371 5.898l6.515 19.955c1.077 3.3 4.133 5.517 7.604 5.517h29.356c3.471 0 6.527-2.217 7.604-5.517l6.515-19.955c.636-1.949.505-4.044-.371-5.898l-17.76-37.627z" fill="#690589"/></g></g></svg>