<?xml version="1.0" encoding="utf-8"?>
<!-- Generator: Adobe Illustrator 21.0.0, SVG Export Plug-In . SVG Version: 6.00 Build 0)  -->
<svg version="1.1" id="圖層_1" xmlns="http://www.w3.org/2000/svg" xmlns:xlink="http://www.w3.org/1999/xlink" x="0px" y="0px"
	 viewBox="0 0 512 512" style="enable-background:new 0 0 512 512;" xml:space="preserve">
<style type="text/css">
	.st0{fill:#F5B97D;}
	.st1{fill:#F7D291;}
	.st2{fill:#CDF5A0;}
	.st3{fill:#B4E6A0;}
	.st4{fill:#F0C382;}
	.st5{fill:#374052;}
	.st6{fill:#F6E282;}
	.st7{fill:#CFA170;}
	.st8{fill:#666666;}
	.st9{fill:#39A261;}
	.st10{fill:#2B303F;}
	.st11{fill:#FFFFFF;}
</style>
<path class="st0" d="M404.6,512H388c-4.6,0-8.3-3.7-8.3-8.3V338.6h33v165.2C412.8,508.3,409.1,512,404.6,512z"/>
<path class="st1" d="M396.3,512h8.3c4.6,0,8.3-3.7,8.3-8.3V371.6h-8.3c-4.6,0-8.3,3.7-8.3,8.3V512z"/>
<path class="st0" d="M123.8,512h-16.5c-4.6,0-8.3-3.7-8.3-8.3V338.6h33v165.2C132,508.3,128.3,512,123.8,512z"/>
<path class="st1" d="M115.5,512h8.3c4.6,0,8.3-3.7,8.3-8.3V371.6h-8.3c-4.6,0-8.3,3.7-8.3,8.3V512z"/>
<path class="st2" d="M255.9,5C169.3,5,99,75.2,99,161.9v189.9c0,4.6,3.7,8.3,8.3,8.3h297.3c4.6,0,8.3-3.7,8.3-8.3V161.9
	C412.8,75.2,342.6,5,255.9,5z"/>
<path class="st3" d="M181.6,343.6c-36.5,0-66.1-29.6-66.1-66.1V91.8c-10.5,21-16.5,45-16.5,70.1v189.9c0,4.6,3.7,8.3,8.3,8.3h297.3
	c4.6,0,8.3-3.7,8.3-8.3v-8.3H181.6z"/>
<path class="st4" d="M181.6,264.3h-8.3c-4.6,0-8.3-3.7-8.3-8.3c0-4.6,3.7-8.3,8.3-8.3h8.3c4.6,0,8.3,3.7,8.3,8.3
	C189.8,260.6,186.1,264.3,181.6,264.3z"/>
<path class="st1" d="M364.9,289.9h-33c-4.6,0-8.3-3.7-8.3-8.3c0-4.6,3.7-8.3,8.3-8.3h33c4.6,0,8.3,3.7,8.3,8.3
	C373.2,286.3,369.5,289.9,364.9,289.9z"/>
<path class="st1" d="M364.9,231.2h-33c-4.6,0-8.3-3.7-8.3-8.3c0-4.6,3.7-8.3,8.3-8.3h33c4.6,0,8.3,3.7,8.3,8.3
	C373.2,227.5,369.5,231.2,364.9,231.2z"/>
<g>
	<path class="st5" d="M283.4,176.8c-1.3,0.1-2.5-0.8-2.7-2.1c-0.3-1.4,0.6-2.7,2-3c28.4-5.5,31-38.7,31.1-40.2
		c0.1-1.4,1.3-2.5,2.7-2.4c1.4,0.1,2.5,1.3,2.4,2.7c0,0.4-2.9,38.6-35.2,44.8C283.5,176.8,283.5,176.8,283.4,176.8z"/>
</g>
<path class="st6" d="M367.2,198.4l-14.5-16.1l-14.4-16.1l-7.2-8.1l-7.2-8.1l-14.4-16.2l-14.3-16.2c-9.5-10.9-19-21.7-28.4-32.7
	l2.1-1.9c10.1,10.3,20.1,20.7,30.1,31.1l14.9,15.7l14.9,15.7l7.4,7.9l7.4,7.9l14.8,15.8l14.7,15.8"/>
<g>
	<path class="st5" d="M234.8,199.3c-0.1,0-0.2,0-0.3,0c-36.9-0.7-47.4-42.5-47.5-42.9c-0.3-1.4,0.5-2.7,1.9-3.1
		c1.4-0.3,2.7,0.5,3.1,1.9c0.4,1.6,9.7,38.4,42.7,39c1.4,0,2.5,1.2,2.5,2.6C237.1,198.1,236.1,199.2,234.8,199.3z"/>
</g>
<g>
	<path class="st6" d="M237.3,91.5c-8.2,13.7-16.5,27.4-24.8,41L200,152.9l-12.6,20.4l-6.3,10.2l-6.4,10.1l-12.7,20.3l-12.8,20.2
		l-6.4,10.1l-3.2,5.1l-1.6,2.5l-0.8,1.3c-0.2,0.5-0.7,0.7-2.7,0l-4.1-2.7c-1.5-1.5-1.4-2.1-1.1-2.5l0.8-1.3l1.6-2.5l3.3-5l6.5-10
		l13.1-20.1l13.2-20l6.6-10l6.6-10l13.3-19.9l13.4-19.9c9-13.2,17.9-26.5,27-39.6L237.3,91.5z"/>
</g>
<g>
	<path class="st5" d="M241.7,290.2c-0.9,0.1-1.8-0.3-2.3-1.1c-0.7-1-0.6-2.3,0.2-3.1c0.1-0.1,7.2-8.4,8-25.8
		c0.8-17.2-10-26.5-10.1-26.6c-1.1-0.9-1.2-2.5-0.3-3.6c0.9-1.1,2.5-1.2,3.6-0.3c0.5,0.4,12.8,11.1,11.9,30.7
		c-0.5,10.5-3.1,18-5.4,22.7c4.5-1.1,10.3-2.1,14.8-0.8c1.4,0.4,2.1,1.8,1.8,3.1c-0.4,1.4-1.8,2.1-3.1,1.8
		c-5.5-1.5-15.1,1.5-18.3,2.8C242.2,290.1,242,290.2,241.7,290.2z"/>
</g>
<g>
	<path class="st5" d="M281,281.7c-0.9,0.1-1.8-0.3-2.3-1.1c-0.7-1-0.6-2.3,0.2-3.1c0.1-0.1,7.2-8.4,8-25.8
		c0.8-17.2-10-26.5-10.1-26.6c-1.1-0.9-1.2-2.5-0.3-3.6c0.9-1.1,2.5-1.2,3.6-0.3c0.5,0.4,12.8,11.1,11.9,30.7
		c-0.5,10.5-3.1,18-5.4,22.7c4.5-1.1,10.3-2.1,14.8-0.8c1.4,0.4,2.1,1.8,1.8,3.1c-0.4,1.4-1.8,2.2-3.1,1.8
		c-5.5-1.5-15.1,1.5-18.3,2.8C281.5,281.6,281.3,281.7,281,281.7z"/>
</g>
<g>
	<path class="st7" d="M208.2,146.3c2.6-3.2,5.9-5.4,10-5.8c0.3,0,0.7-0.1,1,0.1c0.7,0.3,0.8,1,0.2,1.5c-0.4,0.3-0.9,0.6-1.3,0.9
		c-1.6,1.1-2.8,2.4-3.8,4.1c-0.7,1.2-1.3,2.4-2.4,3.3c-0.4,0.4-0.8,0.7-1.3,1c-1.6,0.9-3.1,0.1-3.4-1.7
		C207.1,148.6,207.5,147.5,208.2,146.3"/>
</g>
<g>
	<path class="st7" d="M219.6,122c-1.1-0.7-2.1-1.5-2.6-2.7c-0.4-0.8-0.4-1.6,0.3-2.3c0.6-0.6,1.4-0.6,2.2-0.4
		c0.9,0.3,1.5,1.1,2.2,1.7c1.3,1.3,2.6,2.7,4.1,3.8c0.4,0.3,0.7,0.6,0.4,1.2c-0.2,0.5-0.7,0.7-1.2,0.6
		C223,123.6,221.2,123,219.6,122"/>
</g>
<g>
	<path class="st7" d="M201.4,127.8c-1.3-0.3-2.5-0.6-3.4-1.6c-0.7-0.6-0.9-1.3-0.5-2.2c0.3-0.8,1.1-1.1,1.9-1.1c1,0,1.8,0.4,2.7,0.8
		c1.7,0.8,3.4,1.5,5.2,2c0.5,0.1,0.9,0.3,0.8,0.9c0,0.6-0.4,0.9-0.9,1C205.1,128.1,203.3,128.2,201.4,127.8"/>
</g>
<g>
	<path class="st8" d="M251.4,124.3c1.8-0.7,4.9,3.9,5.4,4.6c0.9,1.4-2.1-2.7-2.5-1.1c-0.4,1.6,0.1,3.5,1.6,4.2
		c1,0.5,2.2,0.3,3.3,0.3c2.8,0.3,5,2.5,6.2,5.1c1.1,2.5,1.4,5.4,1.8,8.1c0.2,1.2,0.4,2.3,0.8,3.4c0.5,1.3,1.2,2.5,2,3.6
		c3.7,5.9,7.4,11.7,11.1,17.6c1,1.6,2,3.3,2.8,5c0.6,1.4,1,2.8,1.5,4.2c2.1,5.3,2.8,9.7,4.9,14.9c3.6,9.3,2.9,19.4,4,29.2
		c0.8,7.8,5.7,16.1,10.2,22.5c3.2,4.6,18.9,3.4,10.3,12.3c-0.9,1-5.9,1.8-8.9,3.1c-0.5,0.2-1.1,0.5-1.7,0.3c-0.8-0.2-1.3-1-2.1-1.2
		c-0.8-0.2-1.6,0.2-2.4,0c-1-0.4-1.2-1.6-1.5-2.6c-0.5-1.6-1.8-2.9-3.2-3.9c-5.6-4.4-12.7-6.3-19.6-8c-4.2-1.1-8.5-2.1-12.9-2.1
		c-2.7,0-5.6,0.4-7.9-0.9c-1.1-0.6-2-1.5-2.9-2.3c-4-3.1-9.4-3.5-14.4-3.7c-1.2,0-2.4-0.1-3.3-0.9c-0.6-0.6-0.8-1.4-1-2.2
		c-1.8-6.5-4.8-12.6-8.9-18c-1-1.4-2.2-2.8-2.1-4.5c0-1.1,0.5-2,0.9-3c1.2-3.2,1.1-7-0.3-10.1c-0.7-1.6-1.8-3.3-1.3-5
		c0.2-0.7,0.6-1.3,0.9-1.9c1.6-3.1,0.6-6.9,0.1-10.4c-1.1-6.9-0.1-14,0.8-20.9c0.5-3.5,1-7,1.5-10.5c0.2-1.2,0.3-2.3,0.5-3.5
		c0.1-0.5,0.2-1.1,0.3-1.6c1.2-3.9,6.2-5.4,8.1-8.9c1.5-2.8-1.2,2.6,0.1,0C236.6,129.9,245.2,126.8,251.4,124.3z"/>
	<path class="st8" d="M304.8,263.2c-0.3,0-0.6,0-0.9-0.1c-0.7-0.2-1.2-0.5-1.6-0.8c-0.2-0.2-0.4-0.3-0.6-0.4c-0.1,0-0.4,0-0.6,0
		c-0.5,0.1-1.1,0.1-1.8-0.1c-1.4-0.5-1.8-1.9-2.1-2.9c-0.1-0.2-0.1-0.3-0.2-0.5c-0.4-1.1-1.2-2.1-2.8-3.4
		c-5.5-4.3-12.8-6.2-19.2-7.8c-4.1-1-8.3-2.1-12.5-2.1c-0.5,0-1,0-1.5,0c-2.4,0.1-4.9,0.2-7.1-1.1c-0.9-0.5-1.6-1.1-2.2-1.7
		c-0.3-0.3-0.6-0.5-0.9-0.8c-3.7-2.9-8.8-3.3-13.7-3.4c-1.2,0-2.9-0.1-4.1-1.3c-0.8-0.8-1.1-1.9-1.3-2.7c-1.8-6.3-4.8-12.4-8.7-17.6
		c-1.1-1.5-2.4-3.2-2.4-5.3c0-1.1,0.4-2,0.8-2.8c0.1-0.2,0.2-0.4,0.2-0.6c1.1-2.9,1-6.3-0.3-9.1c-0.1-0.3-0.2-0.5-0.4-0.8
		c-0.7-1.5-1.6-3.2-1-5.1c0.2-0.6,0.5-1.1,0.8-1.6c0.1-0.2,0.2-0.3,0.3-0.5c1.2-2.3,0.7-5.3,0.2-8.1c-0.1-0.5-0.2-1-0.3-1.6
		c-1.1-7.1-0.1-14.3,0.8-21.2l1.5-10.6c0.2-1.1,0.3-2.2,0.5-3.3c0.1-0.5,0.2-1.1,0.4-1.7c0.8-2.5,2.8-4.1,4.7-5.6
		c1.4-1.1,2.8-2.2,3.6-3.6c0.2-0.4,0.5-0.9,0.8-1.2c3.3-5.1,10.5-8,16.3-10.3l1.4-0.6c2.7-1.1,6,3.7,7,5.1c0.7,1.1,0.2,1.7-0.1,2
		c-0.9,0.7-1.7-0.1-2-0.4c-0.1-0.1-0.2-0.2-0.2-0.2c0.1,0.6,0.4,1.1,0.9,1.4c0.4,0.2,1,0.2,1.7,0.2c0.4,0,0.8,0,1.2,0
		c3.5,0.3,6.1,3.2,7.2,5.8c1,2.3,1.4,4.8,1.7,7.2c0.1,0.4,0.1,0.9,0.2,1.3c0.2,1.2,0.4,2.2,0.7,3.2c0.4,1.2,1.1,2.3,1.8,3.4
		l11.1,17.6c1,1.6,2.1,3.3,2.9,5.2c0.3,0.7,0.6,1.5,0.8,2.3c0.2,0.7,0.5,1.3,0.7,2c1.1,2.8,1.9,5.4,2.6,7.9c0.6,2.3,1.3,4.6,2.3,7.1
		c2.6,6.8,3,14,3.4,21c0.2,2.8,0.3,5.7,0.6,8.5c0.7,6.1,3.9,13.3,10,21.9c0.9,1.3,3.5,2.2,5.8,2.9c3.3,1.1,6.5,2.2,7.1,4.8
		c0.4,1.8-0.4,3.8-2.8,6.2c-0.7,0.8-2.3,1.2-4.9,2c-1.6,0.4-3.2,0.9-4.4,1.4C305.9,262.9,305.4,263.1,304.8,263.2z M301.2,259.4
		c0.4,0,0.8,0,1.2,0.1c0.6,0.2,1.1,0.5,1.5,0.8c0.2,0.2,0.4,0.3,0.6,0.4c0.2,0,0.7-0.2,0.9-0.3c1.4-0.6,3-1,4.7-1.5
		c1.4-0.4,3.4-0.9,3.8-1.3c1.6-1.6,2.3-3,2.1-3.8c-0.3-1.3-3-2.2-5.5-3c-2.8-0.9-5.7-1.9-7.1-3.9c-6.3-9-9.7-16.6-10.4-23.1
		c-0.3-2.9-0.5-5.8-0.6-8.7c-0.4-7.1-0.8-13.9-3.3-20.2c-1-2.6-1.7-5-2.4-7.3c-0.7-2.5-1.4-4.9-2.5-7.6c-0.3-0.7-0.5-1.4-0.8-2.1
		c-0.2-0.7-0.5-1.4-0.8-2.1c-0.7-1.7-1.7-3.3-2.7-4.8l-11.1-17.6c-0.8-1.2-1.5-2.5-2.1-3.9c-0.5-1.3-0.7-2.6-0.9-3.7
		c-0.1-0.4-0.1-0.9-0.2-1.3c-0.3-2.3-0.7-4.5-1.5-6.5c-0.8-1.9-2.7-4.1-5.1-4.3c-0.3,0-0.6,0-0.9,0c-0.8,0-1.8,0-2.7-0.4
		c-2.2-1-2.8-3.7-2.3-5.7c0.1-0.3,0.2-0.6,0.4-0.8c-0.7-0.7-1.3-1.2-1.7-1.3l-1.4,0.5c-5.8,2.3-12.9,5.2-15.6,10
		c-0.1,0.3-0.3,0.7-0.5,1l-0.6,1.1l-0.3-0.2c-0.9,1-2,1.9-3.1,2.7c-1.7,1.3-3.3,2.6-3.8,4.3c-0.1,0.4-0.2,0.9-0.3,1.4
		c-0.2,1.1-0.3,2.2-0.5,3.3l-1.5,10.6c-0.9,6.7-1.9,13.7-0.9,20.5c0.1,0.5,0.2,1,0.3,1.5c0.5,3.1,1.2,6.6-0.4,9.7
		c-0.1,0.2-0.2,0.4-0.3,0.6c-0.2,0.4-0.4,0.7-0.5,1c-0.3,0.9,0.3,2.1,0.9,3.3c0.1,0.3,0.3,0.6,0.4,0.8c1.6,3.5,1.7,7.5,0.3,11.1
		c-0.1,0.2-0.2,0.4-0.3,0.6c-0.3,0.7-0.6,1.3-0.6,2c0,1.2,0.9,2.4,1.8,3.6c4.2,5.6,7.3,11.8,9.2,18.5c0.2,0.7,0.4,1.3,0.7,1.6
		c0.5,0.5,1.4,0.5,2.4,0.6c5.3,0.1,10.9,0.6,15.2,3.9c0.3,0.3,0.7,0.5,1,0.8c0.6,0.5,1.2,1,1.8,1.4c1.6,0.9,3.6,0.8,5.8,0.8
		c0.5,0,1,0,1.5,0c4.6,0,8.9,1.1,13.2,2.2c6.7,1.7,14.2,3.6,20.1,8.2c1.2,1,2.9,2.5,3.6,4.5c0.1,0.2,0.1,0.4,0.2,0.6
		c0.1,0.4,0.3,1.2,0.6,1.3c0.1,0,0.4,0,0.6,0C300.9,259.4,301.1,259.4,301.2,259.4z"/>
</g>
<g>
	<path class="st9" d="M253.6,118c1.8-0.7,4.5-1.2,5-0.4c0.9,1.4-1.7,2.4-2.1,4c-0.4,1.6,0.1,3.5,1.6,4.2c1,0.5,2.2,0.3,3.3,0.3
		c2.8,0.3,5,2.5,6.2,5.1c1.1,2.5,1.4,5.4,1.8,8.1c0.2,1.2,0.4,2.3,0.8,3.4c0.5,1.3,1.2,2.5,2,3.6c3.7,5.9,7.4,11.7,11.1,17.6
		c1,1.6,2,3.3,2.8,5c0.6,1.4,1,2.8,1.5,4.2c2.1,5.3,6.6,9.3,8.7,14.6c3.6,9.3-0.9,19.7,0.2,29.5c0.8,7.8,3.2,16.3,7.6,22.7
		c3.2,4.6,14.4,9.4,12.8,12.1c-0.7,1.2-5.9,1.8-8.9,3.1c-0.5,0.2-1.1,0.5-1.7,0.3c-0.8-0.2-1.3-1-2.1-1.2c-0.8-0.2-1.6,0.2-2.4,0
		c-1-0.4-1.2-1.6-1.5-2.6c-0.5-1.6-1.8-2.9-3.2-3.9c-5.6-4.4-12.7-6.3-19.6-8c-4.2-1.1-8.5-2.1-12.9-2.1c-2.7,0-5.6,0.4-7.9-0.9
		c-1.1-0.6-2-1.5-2.9-2.3c-4-3.1-9.4-3.5-14.4-3.7c-1.2,0-2.4-0.1-3.3-0.9c-0.6-0.6-0.8-1.4-1-2.2c-1.8-6.5-4.8-12.6-8.9-18
		c-1-1.4-2.2-2.8-2.1-4.5c0-1.1,0.5-2,0.9-3c1.2-3.2,1.1-7-0.3-10.1c-0.7-1.6-1.8-3.3-1.3-5c0.2-0.7,0.6-1.3,0.9-1.9
		c1.6-3.1,0.6-6.9,0.1-10.4c-1.1-6.9-0.1-14,0.8-20.9c0.5-3.5,1-7,1.5-10.5c0.2-1.2,0.3-2.3,0.5-3.5c0.1-0.5,0.2-1.1,0.3-1.6
		c1.2-3.9,6.2-5.4,8.1-8.9c1.5-2.8-1.8-5-0.5-7.6C238.1,116.1,247.4,120.6,253.6,118z"/>
</g>
<g>
	<path class="st10" d="M241.5,165.3c-2.7,0.8-4.2,3.7-3.4,6.5c0.2,0.5,0.7,0.8,1.2,0.7c0.5-0.2,0.8-0.7,0.7-1.2
		c-0.5-1.7,0.4-3.5,2.1-4c1.7-0.5,3.4,0.5,4,2.1c0.2,0.5,0.7,0.8,1.2,0.7c0.5-0.2,0.8-0.7,0.7-1.2
		C247.1,166.1,244.2,164.5,241.5,165.3"/>
</g>
<g>
	<path class="st10" d="M265.4,157.8c-2.8,0.9-4.4,3.8-3.6,6.6c0.2,0.5,0.7,0.8,1.3,0.7c0.5-0.2,0.8-0.7,0.7-1.3
		c-0.5-1.7,0.5-3.5,2.2-4.1c1.7-0.5,3.6,0.4,4.1,2.1c0.2,0.5,0.7,0.8,1.3,0.7c0.5-0.2,0.8-0.7,0.7-1.3
		C271.2,158.6,268.2,157,265.4,157.8"/>
</g>
<g>
	<path class="st11" d="M251.3,172.1c0,0,3-0.4,5.4-1.2c2.4-0.8,4.9-2.4,4.9-2.4s-0.1,4-3.9,5.3C253.8,175.1,251.3,172.1,251.3,172.1
		"/>
</g>
<g>
	<path class="st10" d="M243.2,155.3c0,0,1.2,1.6,1.3,2.4c0.1,0.8-12.7,10.7-13.2,10.4c-0.4-0.2-1.8-1.7-1.4-2.5
		C230.3,164.8,241.5,155,243.2,155.3"/>
</g>
<g>
	<path class="st10" d="M257.4,151c0,0-0.3,1.8,0.1,2.6c0.4,0.7,16.5,1.7,16.7,1.3c0.2-0.4,1.1-2.5,0.3-2.9S258.6,149.8,257.4,151"/>
</g>
</svg>
