<svg id="Layer_3" enable-background="new 0 0 64 64" height="512" viewBox="0 0 64 64" width="512" xmlns="http://www.w3.org/2000/svg"><g><path d="m39.675 24h12.934c5.187 0 9.391-4.204 9.391-9.391 0-3.455-1.897-6.631-4.939-8.268l-.137-.074c-5.201-2.801-11.016-4.267-16.924-4.267-5.908 0-11.723 1.466-16.924 4.267l-.137.074c-3.042 1.638-4.939 4.813-4.939 8.268 0 1.266.25 2.473.705 3.575v-.001c1.091-.121 2.191-.183 3.295-.183 5.239 0 10.385 1.391 14.91 4.031l.993.579c.634.37 1.207.817 1.71 1.326z" fill="#674025"/><path d="m31.588 41.05c.864-.733 1.412-1.828 1.412-3.05h.743c4.56 0 8.257-3.697 8.257-8.257 0-.593-.064-1.176-.186-1.743h4.186l2.101 11.205c.598 3.19.899 6.428.899 9.674 0 1.358-.54 2.661-1.5 3.621-.96.96-2.263 1.5-3.621 1.5h-7.757c-1.358 0-2.661-.54-3.621-1.5-.96-.96-1.5-2.263-1.5-3.621-.001-2.622.195-5.239.587-7.829z" fill="#f5cf88"/><path d="m52 24h-12.325l.001-.001c1.07 1.105 1.813 2.491 2.138 4h-.001 6.187c2.209.001 4-1.79 4-3.999z" fill="#c18e59"/><path d="m42 29.743c0 4.56-3.697 8.257-8.257 8.257h-23.486c-4.56 0-8.257-3.697-8.257-8.257 0-2.937 1.56-5.653 4.097-7.132l.993-.579c4.525-2.641 9.671-4.032 14.91-4.032 5.239 0 10.385 1.391 14.91 4.031l.993.579c2.537 1.48 4.097 4.196 4.097 7.133z" fill="#976947"/><path d="m27 42 1.598 5.327c.93 3.099 1.402 6.317 1.402 9.552 0 1.358-.54 2.661-1.5 3.621-.96.96-2.263 1.5-3.621 1.5h-5.757c-1.358 0-2.661-.54-3.621-1.5-.96-.96-1.5-2.263-1.5-3.621 0-3.235.472-6.453 1.402-9.552l1.597-5.327" fill="#f5cf88"/><g><path d="m26.999 56.878h-2c0-3.141-.457-6.258-1.359-9.265l1.916-.575c.957 3.194 1.443 6.504 1.443 9.84z" fill="#fadfb2"/></g><g><path d="m46 48.877h-2c0-3.174-.297-6.366-.882-9.489l1.965-.368c.608 3.244.917 6.56.917 9.857z" fill="#fadfb2"/></g><path d="m11 38c0 2.209 1.791 4 4 4h14c2.209 0 4-1.791 4-4" fill="#c18e59"/><g><path d="m52 20.998v-2c2.757 0 5-2.242 5-4.999h2c0 3.859-3.141 6.999-7 6.999z" fill="#976947"/></g><g><path d="m23.64 47.613c.902 3.007 1.359 6.124 1.359 9.265h2c0-3.336-.486-6.646-1.444-9.84z"/><path d="m46 48.877c0-3.297-.309-6.613-.917-9.857l-1.965.368c.585 3.123.882 6.315.882 9.489z"/><path d="m63 14.608c0-3.828-2.094-7.334-5.468-9.151l-.134-.071c-5.33-2.87-11.346-4.387-17.399-4.387-6.054.001-12.07 1.518-17.395 4.385l-.141.075c-3.369 1.815-5.463 5.321-5.463 9.148-.001.941.133 1.863.379 2.757-3.791.58-7.46 1.857-10.793 3.801l-.994.579c-2.833 1.654-4.592 4.719-4.592 7.997 0 5.052 4.068 9.164 9.1 9.249.461 2.283 2.482 4.008 4.9 4.008h.656l-1.212 4.04c-.958 3.194-1.444 6.504-1.444 9.84 0 1.635.636 3.172 1.792 4.329 1.157 1.155 2.694 1.793 4.329 1.793h5.758c1.635 0 3.172-.638 4.329-1.794 1.156-1.156 1.792-2.693 1.792-4.328 0-1.844-.163-3.678-.458-5.491.301.668.718 1.286 1.251 1.82 1.156 1.155 2.693 1.793 4.328 1.793l7.757-.002c1.636 0 3.173-.637 4.329-1.792 1.156-1.156 1.793-2.693 1.793-4.328 0-3.298-.308-6.614-.917-9.858l-1.879-10.021h.796c2.42 0 4.442-1.729 4.9-4.015 5.594-.157 10.1-4.745 10.1-10.376zm-60 15.133c0-2.57 1.379-4.973 3.6-6.269l.993-.579c4.369-2.548 9.351-3.895 14.407-3.895s10.037 1.347 14.406 3.895l.993.579c2.221 1.296 3.6 3.698 3.6 6.269 0 4.002-3.255 7.257-7.257 7.257h-23.486c-4.001 0-7.256-3.255-7.256-7.257zm9.184 9.257h19.632c-.414 1.161-1.513 2-2.815 2h-14.001c-1.303 0-2.402-.839-2.816-2zm15.608 20.794c-.767.768-1.829 1.208-2.914 1.208h-5.758c-1.101 0-2.136-.43-2.914-1.209-.778-.777-1.206-1.812-1.206-2.913 0-3.141.457-6.258 1.359-9.265l1.384-4.615h8.512l1.384 4.615c.902 3.007 1.359 6.124 1.359 9.265.001 1.101-.428 2.136-1.206 2.914zm1.763-12.754-1.212-4.04h.657c.471 0 .917-.086 1.349-.208-.226 1.979-.342 3.977-.347 5.964-.14-.574-.277-1.149-.447-1.716zm17.563-7.65c.585 3.123.882 6.315.882 9.49 0 1.101-.429 2.136-1.208 2.914-.778.778-1.812 1.206-2.914 1.206l-7.757.002c-1.101 0-2.136-.43-2.914-1.209-.779-.777-1.207-1.812-1.207-2.913 0-2.451.182-4.918.531-7.344.683-.683 1.169-1.562 1.367-2.544 5.032-.085 9.1-4.197 9.1-9.249 0-.25-.029-.496-.05-.743h2.221zm.882-12.39h-5.437c-.219-.701-.513-1.373-.888-2h9.14c-.413 1.162-1.513 2-2.815 2zm4.609-4h-12.552c-.501-.471-1.045-.9-1.651-1.253l-.993-.579c-4.674-2.727-10.004-4.167-15.413-4.167-.874 0-1.744.051-2.612.126-.256-.812-.388-1.654-.388-2.517 0-3.092 1.69-5.923 4.409-7.387l.14-.075c5.038-2.712 10.727-4.147 16.451-4.147 5.722 0 11.41 1.434 16.453 4.149l.134.071c2.722 1.468 4.413 4.299 4.413 7.389 0 4.626-3.765 8.39-8.391 8.39z"/><path d="m57 13.999c0 2.757-2.243 4.999-5 4.999v2c3.859 0 7-3.14 7-6.999z"/></g></g></svg>