<svg id="Capa_1" enable-background="new 0 0 512.031 512.031" height="512" viewBox="0 0 512.031 512.031" width="512" xmlns="http://www.w3.org/2000/svg"><g><g><g><g><path d="m426.897 171.808c11.599-10.689 29.778-10.553 41.227.297 4.28 4.056 7.103 9.045 8.473 14.334.679 2.619 2.739 4.68 5.358 5.358 5.288 1.37 10.278 4.193 14.334 8.473 10.85 11.449 10.986 29.628.297 41.227-10.394 11.279-27.162 12.781-39.26 4.516-2.554-1.745-5.971-1.484-8.158.703l-47.242 47.242-27.49-27.49 47.242-47.242c2.187-2.187 2.448-5.604.703-8.158-8.265-12.098-6.763-28.866 4.516-39.26z" fill="#edebed"/><path d="m496.289 200.27c-.005-.005-.011-.01-.016-.016-1.289 4.078-3.456 7.929-6.509 11.243-10.394 11.279-27.162 12.781-39.26 4.516-2.554-1.745-5.971-1.484-8.158.703l-47.242 47.242-9.079-9.079-11.589 11.589 27.49 27.49 47.242-47.242c2.187-2.187 5.604-2.448 8.158-.703 12.098 8.265 28.865 6.763 39.26-4.516 10.689-11.599 10.553-29.778-.297-41.227z" fill="#e2dfe3"/><path d="m193.359 332.964c-39.569 39.569-39.229 103.934 1.02 143.077 39.249 38.17 101.56 37.941 140.542-.502 18.032-17.783 27.914-40.67 29.649-64.05 2.224-29.963 13.552-58.529 32.694-81.687l26.75-32.361c12.382-14.98 11.343-36.919-2.399-50.662-13.743-13.743-35.682-14.782-50.661-2.399l-34.059 28.153c-22.171 18.326-49.514 29.548-78.232 31.176-23.768 1.347-47.147 11.097-65.304 29.255z" fill="#c6855b"/><path d="m421.615 246.779c-7.297-7.297-16.905-11.012-26.555-11.039 10.373 13.733 10.205 33.089-1.046 46.7l-26.75 32.361c-19.142 23.158-30.47 51.724-32.694 81.688-1.735 23.38-11.617 46.268-29.649 64.05-27.151 26.776-65.615 34.99-99.726 24.626 39.173 28.694 94.156 25.451 129.726-9.626 18.032-17.782 27.914-40.67 29.649-64.05 2.224-29.963 13.552-58.529 32.694-81.688l26.75-32.361c12.382-14.98 11.343-36.918-2.399-50.661z" fill="#c17e4e"/></g></g><g><g><path d="m85.134 340.233c-11.599 10.689-29.778 10.553-41.227-.297-4.28-4.056-7.103-9.045-8.473-14.334-.679-2.619-2.739-4.68-5.358-5.358-5.288-1.37-10.278-4.193-14.334-8.473-10.85-11.449-10.986-29.628-.297-41.227 10.394-11.279 27.162-12.781 39.26-4.516 2.554 1.745 5.971 1.484 8.158-.703l47.242-47.242 27.49 27.49-47.242 47.242c-2.187 2.187-2.448 5.604-.703 8.158 8.265 12.098 6.763 28.866-4.516 39.26z" fill="#edebed"/><g><path d="m90.353 292.815 47.242-47.242-27.49-27.49-15 15 12.49 12.49-47.242 47.242c-2.187 2.187-2.448 5.604-.703 8.158 8.265 12.098 6.763 28.865-4.516 39.26-1.692 1.559-3.527 2.881-5.458 3.98 11.166 6.354 25.66 5.05 35.458-3.98 11.279-10.395 12.781-27.162 4.516-39.26-1.745-2.553-1.484-5.971.703-8.158z" fill="#e2dfe3"/></g><path d="m318.672 179.077c39.569-39.569 39.229-103.934-1.02-143.077-39.249-38.17-101.56-37.941-140.543.502-18.032 17.783-27.914 40.67-29.649 64.05-2.224 29.963-13.552 58.529-32.694 81.687l-26.75 32.361c-12.382 14.98-11.343 36.919 2.399 50.662 13.743 13.743 35.682 14.782 50.662 2.399l34.059-28.153c22.171-18.326 49.514-29.548 78.232-31.176 23.768-1.347 47.146-11.097 65.304-29.255z" fill="#c6855b"/><path d="m317.652 36c-11.912-11.584-25.953-19.609-40.817-24.125 3.759 2.753 7.381 5.783 10.817 9.125 40.249 39.143 40.589 103.508 1.02 143.077-18.158 18.158-41.536 27.908-65.303 29.256-28.718 1.628-56.062 12.85-78.232 31.176l-34.059 28.153c-7.026 5.808-15.583 8.662-24.107 8.639 1.043 1.381 2.19 2.706 3.445 3.962 13.743 13.742 35.682 14.782 50.661 2.399l34.059-28.153c22.171-18.326 49.514-29.547 78.232-31.176 23.767-1.348 47.146-11.098 65.303-29.256 39.57-39.569 39.23-103.934-1.019-143.077z" fill="#c17e4e"/></g></g></g><path d="m250.673 80.172c2.929-2.929 2.929-7.678 0-10.607s-7.678-2.929-10.607 0-2.929 7.678 0 10.607 7.678 2.929 10.607 0zm-19.173-28.716c2.929-2.929 2.929-7.678 0-10.606s-7.678-2.929-10.607 0-2.929 7.678 0 10.606c2.929 2.929 7.678 2.929 10.607 0zm22.294 164.365c26.484-1.501 51.409-12.667 70.182-31.44 20.592-20.592 31.821-47.972 31.618-77.096-.203-29.118-11.821-56.343-32.713-76.661-28.499-27.716-69.729-37.542-107.596-25.646-3.952 1.242-6.148 5.452-4.907 9.403 1.242 3.952 5.451 6.147 9.403 4.907 32.602-10.243 68.1-1.779 92.641 22.088 17.992 17.497 27.996 40.94 28.171 66.012.175 25.078-9.494 48.654-27.225 66.385-16.165 16.164-37.624 25.778-60.425 27.071-29.636 1.68-58.965 13.358-82.586 32.883l-34.059 28.153c-12.463 10.34-29.573 9.085-40.58-1.922-11.009-11.009-12.242-28.13-1.922-40.58l26.75-32.361c20.137-24.361 32.029-54.069 34.393-85.911 1.664-22.411 11.407-43.458 27.436-59.265 2.71-2.673 5.6-5.198 8.588-7.505 3.279-2.531 3.884-7.241 1.353-10.52s-7.242-3.883-10.52-1.353c-3.465 2.676-6.814 5.602-9.954 8.698-18.614 18.357-29.93 42.803-31.862 68.835-2.132 28.725-12.85 55.512-30.995 77.464l-26.75 32.361c-8.505 10.289-11.755 23.19-9.921 35.452l-14.089 14.089c-15.264-9.924-35.878-7.375-48.295 6.094-13.382 14.521-13.219 37.13.367 51.467 4.871 5.148 11.06 8.805 17.877 10.556 1.769 6.83 5.423 13.02 10.572 17.903 7.239 6.86 16.583 10.297 25.934 10.296 9.169-.001 18.345-3.308 25.536-9.934 13.473-12.41 16.024-33.022 6.103-48.285l14.093-14.093c12.524 1.871 25.178-1.467 35.443-9.927l34.059-28.153c21.175-17.499 47.412-27.964 73.88-29.465zm-168.73 71.684c-4.722 4.701-5.401 12.141-1.61 17.697 6.308 9.229 4.847 21.916-3.4 29.513-8.745 8.058-22.356 7.961-30.986-.216-3.104-2.945-5.308-6.672-6.372-10.782-1.364-5.258-5.478-9.372-10.739-10.737-4.108-1.064-7.83-3.265-10.767-6.369-8.183-8.636-8.284-22.248-.229-30.988 7.6-8.244 20.288-9.708 29.518-3.398 5.533 3.775 12.967 3.112 17.691-1.592l9.627-9.627c1.963 3.417 4.397 6.638 7.317 9.559 2.923 2.923 6.148 5.358 9.568 7.322zm416.669-92.389c-4.871-5.148-11.06-8.805-17.877-10.556-1.769-6.83-5.423-13.02-10.572-17.903-14.337-13.587-36.947-13.746-51.47-.363-13.473 12.41-16.024 33.022-6.103 48.285l-14.098 14.097c-12.259-1.83-25.154 1.421-35.439 9.923l-34.059 28.153c-21.174 17.502-47.412 27.968-73.878 29.469-15.902.901-31.66 5.393-45.568 12.988-3.635 1.985-4.973 6.542-2.988 10.177 1.986 3.635 6.542 4.974 10.177 2.988 11.968-6.536 25.532-10.401 39.228-11.178 29.636-1.68 58.965-13.358 82.586-32.883l34.059-28.153c12.452-10.343 29.634-9.023 40.58 1.922 10.931 10.93 12.264 28.146 1.922 40.58l-26.75 32.361c-20.137 24.361-32.029 54.069-34.393 85.911-1.664 22.411-11.407 43.458-27.436 59.265-17.449 17.208-40.509 26.733-64.932 26.821-.115 0-.227 0-.341 0-24.297-.001-47.29-9.353-64.774-26.356-35.736-34.754-37.832-91.126-4.772-128.338 2.751-3.097 2.471-7.837-.625-10.588-3.097-2.751-7.837-2.471-10.588.625-38.4 43.223-35.971 108.695 5.528 149.054 20.302 19.745 47.004 30.603 75.23 30.603h.396c28.37-.103 55.151-11.162 75.411-31.14 18.614-18.357 29.93-42.803 31.862-68.835 2.132-28.725 12.85-55.512 30.995-77.464l26.75-32.361c8.505-10.289 11.755-23.19 9.921-35.452l14.089-14.089c15.263 9.923 35.878 7.375 48.295-6.094 13.383-14.523 13.22-37.132-.366-51.469zm-10.662 41.301c-7.601 8.244-20.289 9.707-29.518 3.398-5.532-3.774-12.967-3.111-17.691 1.592l-9.627 9.627c-1.963-3.417-4.397-6.638-7.317-9.559-2.923-2.923-6.148-5.358-9.568-7.323l9.618-9.617c4.722-4.701 5.401-12.141 1.61-17.697-6.308-9.229-4.847-21.916 3.4-29.513 8.744-8.058 22.355-7.962 30.986.216 3.104 2.945 5.308 6.672 6.372 10.782 1.364 5.258 5.478 9.372 10.739 10.737 4.108 1.064 7.83 3.265 10.767 6.369 8.183 8.636 8.283 22.248.229 30.988zm-222.536-184.961c2.929-2.929 2.929-7.678 0-10.606-2.929-2.929-7.678-2.929-10.607 0s-2.929 7.678 0 10.606c2.929 2.929 7.678 2.929 10.607 0zm22.602 419.735c2.929-2.929 2.929-7.678 0-10.606-2.929-2.929-7.678-2.929-10.607 0s-2.929 7.677 0 10.606c2.93 2.929 7.678 2.929 10.607 0zm-19.173-28.715c2.929-2.929 2.929-7.678 0-10.607s-7.678-2.929-10.607 0-2.929 7.678 0 10.607c2.93 2.929 7.678 2.929 10.607 0zm-17.862 28.715c2.929-2.929 2.929-7.678 0-10.606-2.929-2.929-7.678-2.929-10.607 0s-2.929 7.677 0 10.606c2.93 2.929 7.679 2.929 10.607 0z"/></g></svg>